<mxfile host="app.diagrams.net" modified="2024-03-23T00:43:23.872Z" agent="Mozilla/5.0 (X11; Linux x86_64) AppleWebKit/537.36 (KHTML, like Gecko) Chrome/123.0.0.0 Safari/537.36" etag="-_j5YdYylryIQCRqTusd" version="24.0.7" type="device">
  <diagram name="Page-1" id="fd_FwQWNHNDlk6dbak43">
    <mxGraphModel dx="1434" dy="786" grid="1" gridSize="10" guides="1" tooltips="1" connect="1" arrows="1" fold="1" page="1" pageScale="1" pageWidth="850" pageHeight="1100" math="0" shadow="0">
      <root>
        <mxCell id="0" />
        <mxCell id="1" parent="0" />
        <mxCell id="83el6hPytaYEoBOskhVi-2" style="edgeStyle=orthogonalEdgeStyle;rounded=0;orthogonalLoop=1;jettySize=auto;html=1;" edge="1" parent="1" source="83el6hPytaYEoBOskhVi-1">
          <mxGeometry relative="1" as="geometry">
            <mxPoint x="200" y="540" as="targetPoint" />
          </mxGeometry>
        </mxCell>
        <mxCell id="83el6hPytaYEoBOskhVi-5" style="edgeStyle=orthogonalEdgeStyle;rounded=0;orthogonalLoop=1;jettySize=auto;html=1;exitX=0.5;exitY=0;exitDx=0;exitDy=0;entryX=0.008;entryY=0.315;entryDx=0;entryDy=0;entryPerimeter=0;" edge="1" parent="1" source="83el6hPytaYEoBOskhVi-1" target="83el6hPytaYEoBOskhVi-6">
          <mxGeometry relative="1" as="geometry">
            <mxPoint x="320" y="130" as="targetPoint" />
          </mxGeometry>
        </mxCell>
        <mxCell id="83el6hPytaYEoBOskhVi-1" value="Nft auction diamond" style="rhombus;whiteSpace=wrap;html=1;" vertex="1" parent="1">
          <mxGeometry x="90" y="240" width="220" height="140" as="geometry" />
        </mxCell>
        <mxCell id="83el6hPytaYEoBOskhVi-3" value="" style="shape=parallelogram;perimeter=parallelogramPerimeter;whiteSpace=wrap;html=1;fixedSize=1;" vertex="1" parent="1">
          <mxGeometry x="52.5" y="540" width="295" height="200" as="geometry" />
        </mxCell>
        <mxCell id="83el6hPytaYEoBOskhVi-4" value="ERC20 variables" style="text;html=1;align=center;verticalAlign=middle;whiteSpace=wrap;rounded=0;" vertex="1" parent="1">
          <mxGeometry x="110" y="540" width="190" height="30" as="geometry" />
        </mxCell>
        <mxCell id="83el6hPytaYEoBOskhVi-6" value="" style="rounded=0;whiteSpace=wrap;html=1;" vertex="1" parent="1">
          <mxGeometry x="535" y="110" width="250" height="130" as="geometry" />
        </mxCell>
        <mxCell id="83el6hPytaYEoBOskhVi-7" value="ERC20 Facet" style="text;html=1;align=center;verticalAlign=middle;whiteSpace=wrap;rounded=0;" vertex="1" parent="1">
          <mxGeometry x="565" y="147.5" width="190" height="55" as="geometry" />
        </mxCell>
        <mxCell id="83el6hPytaYEoBOskhVi-8" value="ERC721 variables" style="text;html=1;align=center;verticalAlign=middle;whiteSpace=wrap;rounded=0;" vertex="1" parent="1">
          <mxGeometry x="110" y="560" width="190" height="30" as="geometry" />
        </mxCell>
      </root>
    </mxGraphModel>
  </diagram>
</mxfile>
